<?xml version="1.0" encoding="iso-8859-1"?>
<!-- Generator: Adobe Illustrator 19.0.0, SVG Export Plug-In . SVG Version: 6.00 Build 0)  -->
<svg xmlns="http://www.w3.org/2000/svg" xmlns:xlink="http://www.w3.org/1999/xlink" version="1.1" id="Capa_1" x="0px" y="0px" viewBox="0 0 512.001 512.001" style="enable-background:new 0 0 512.001 512.001;" xml:space="preserve" width="512px" height="512px">
<g>
	<g>
		<g>
			<path d="M448,298.387v-33.244H210.286v18.286c-0.01,10.095-8.191,18.276-18.286,18.286h-18.286     c-10.095-0.01-18.276-8.191-18.286-18.286v-18.286h-18.286v18.286c-0.01,10.095-8.191,18.276-18.286,18.286h-18.286     c-10.095-0.01-18.276-8.191-18.286-18.286v-18.286H64L64,320c-0.004,1.268,0.12,2.534,0.371,3.777     c1.8,8.458,9.268,14.506,17.915,14.509h235.651c5.533-7.089,11.848-13.533,18.824-19.208c0.151-0.138,0.22-0.328,0.382-0.457     c0.225-0.181,0.502-0.225,0.738-0.382C368.926,293.551,410.289,286.094,448,298.387z" fill="#91DC5A"/>
			<rect x="100.572" y="265.143" width="18.286" height="18.286" fill="#91DC5A"/>
			<rect x="173.715" y="265.143" width="18.286" height="18.286" fill="#91DC5A"/>
			<path d="M402.286,311.32c-16.532,1.491-32.431,7.078-46.261,16.257l46.261,57.797V311.32z" fill="#91DC5A"/>
			<path d="M292.572,411.429c-0.001-19.111,4.639-37.936,13.521-54.857H82.286c-17.331-0.033-32.276-12.19-35.835-29.152     c-0.494-2.442-0.741-4.928-0.737-7.42V192c0.023-20.188,16.383-36.548,36.571-36.571h347.429     c20.188,0.023,36.548,16.383,36.571,36.571v114.093c12.813,6.724,24.297,15.719,33.893,26.549     c7.847-24.79,11.834-50.639,11.821-76.642C512,114.615,397.385,0,256,0S0,114.615,0,256c0.004,25.835,3.872,51.524,11.478,76.214     c20.241,64.92,65.482,119.119,125.741,150.635s130.581,37.76,195.449,17.353C307.193,477.729,292.591,445.4,292.572,411.429z" fill="#91DC5A"/>
			<path d="M378.336,506.291c29.211,10.305,61.546,6.526,87.594-10.237c26.048-16.763,42.883-44.627,45.607-75.482h-94.22     L378.336,506.291z" fill="#91DC5A"/>
			<path d="M420.572,311.32v90.965h90.965C507.068,354.019,468.839,315.789,420.572,311.32z" fill="#91DC5A"/>
			<path d="M448,192c-0.01-10.095-8.191-18.276-18.286-18.286H82.286C72.191,173.724,64.01,181.905,64,192v54.857h384V192z      M374.675,212.112c-0.102,0.573-0.287,1.128-0.549,1.647c-0.201,0.583-0.479,1.137-0.826,1.647     c-0.362,0.455-0.728,0.911-1.094,1.371c-0.891,0.806-1.911,1.455-3.018,1.92c-2.214,0.976-4.737,0.976-6.951,0     c-1.106-0.465-2.125-1.115-3.013-1.92c-0.366-0.46-0.732-0.915-1.098-1.371c-0.347-0.51-0.625-1.064-0.826-1.647     c-0.263-0.519-0.447-1.074-0.545-1.647c-0.107-0.603-0.169-1.214-0.183-1.826c0.034-2.421,0.981-4.739,2.651-6.491     c0.888-0.808,1.907-1.459,3.013-1.924c2.208-1.004,4.743-1.004,6.951,0c2.294,0.836,4.101,2.643,4.937,4.937     c0.47,1.1,0.719,2.282,0.733,3.478C374.841,210.898,374.78,211.508,374.675,212.112z M402.103,212.112     c-0.102,0.573-0.287,1.128-0.549,1.647c-0.201,0.583-0.479,1.137-0.826,1.647c-0.362,0.455-0.728,0.911-1.094,1.371     c-0.434,0.392-0.892,0.757-1.37,1.094c-0.51,0.347-1.064,0.625-1.647,0.826c-0.519,0.263-1.074,0.448-1.647,0.549     c-0.604,0.101-1.214,0.162-1.826,0.183c-2.42-0.036-4.738-0.983-6.491-2.651c-0.366-0.46-0.732-0.915-1.098-1.371     c-0.347-0.51-0.625-1.064-0.826-1.647c-0.263-0.519-0.447-1.074-0.545-1.647c-0.107-0.603-0.168-1.214-0.183-1.826     c0.013-1.196,0.26-2.377,0.728-3.478c0.465-1.107,1.116-2.126,1.924-3.014c2.211-2.118,5.309-3.038,8.317-2.469     c0.573,0.098,1.129,0.282,1.647,0.545c0.583,0.201,1.137,0.479,1.647,0.826c0.455,0.366,0.911,0.732,1.37,1.098     c0.806,0.889,1.455,1.908,1.92,3.013c0.513,1.086,0.764,2.277,0.732,3.478C402.269,210.898,402.208,211.508,402.103,212.112z      M429.532,212.112c-0.102,0.573-0.287,1.128-0.549,1.647c-0.201,0.583-0.479,1.137-0.826,1.647     c-0.362,0.455-0.728,0.911-1.094,1.371c-0.434,0.392-0.892,0.757-1.37,1.094c-0.51,0.347-1.064,0.625-1.647,0.826     c-0.519,0.263-1.074,0.448-1.647,0.549c-0.603,0.105-1.214,0.166-1.826,0.183c-1.201,0.032-2.392-0.219-3.478-0.732     c-1.106-0.465-2.125-1.115-3.013-1.92c-0.366-0.46-0.732-0.915-1.098-1.371c-0.347-0.51-0.625-1.064-0.826-1.647     c-0.263-0.519-0.447-1.074-0.545-1.647c-0.107-0.603-0.169-1.213-0.183-1.826c0.013-1.196,0.26-2.377,0.728-3.478     c0.84-2.292,2.645-4.098,4.937-4.937c1.669-0.727,3.522-0.918,5.304-0.545c0.573,0.098,1.129,0.282,1.647,0.545     c0.583,0.201,1.137,0.479,1.647,0.826c0.455,0.366,0.911,0.732,1.37,1.098c1.669,1.753,2.616,4.071,2.652,6.491     C429.698,210.898,429.637,211.508,429.532,212.112z" fill="#91DC5A"/>
			<path d="M341.78,339.045c-22.894,21.926-34.074,53.385-30.152,84.841c3.922,31.456,22.485,59.206,50.062,74.839l39.091-85.966     L341.78,339.045z" fill="#91DC5A"/>
		</g>
	</g>
</g>
<g>
</g>
<g>
</g>
<g>
</g>
<g>
</g>
<g>
</g>
<g>
</g>
<g>
</g>
<g>
</g>
<g>
</g>
<g>
</g>
<g>
</g>
<g>
</g>
<g>
</g>
<g>
</g>
<g>
</g>
</svg>
