<?xml version="1.0" encoding="iso-8859-1"?>
<!-- Generator: Adobe Illustrator 19.0.0, SVG Export Plug-In . SVG Version: 6.00 Build 0)  -->
<svg version="1.1" id="Capa_1" xmlns="http://www.w3.org/2000/svg" xmlns:xlink="http://www.w3.org/1999/xlink" x="0px" y="0px"
	 viewBox="0 0 512.001 512.001" style="enable-background:new 0 0 512.001 512.001;" xml:space="preserve">
<g>
	<circle style="fill:#F29C1F;" cx="256" cy="256" r="256"/>
	<path style="fill:#95A5A5;" d="M203.034,256v26.483c-0.015,4.869-3.958,8.813-8.828,8.828h-17.655
		c-4.869-0.015-8.813-3.958-8.828-8.828V256H203.034z"/>
	<path style="fill:#4482C3;" d="M450.207,194.207V256H61.793l0-61.793c-0.009-7.027,2.778-13.768,7.746-18.737
		c4.969-4.969,11.71-7.756,18.737-7.746h335.448c7.027-0.009,13.768,2.778,18.737,7.746S450.216,187.18,450.207,194.207z"/>
	<path style="fill:#95A5A5;" d="M132.414,256v26.483c-0.015,4.869-3.958,8.813-8.828,8.828h-17.655
		c-4.869-0.015-8.813-3.958-8.828-8.828V256H132.414z"/>
	<path style="fill:#46B29D;" d="M414.897,220.69c-1.159,0.031-2.309-0.212-3.358-0.707c-1.068-0.449-2.051-1.076-2.909-1.854
		c-0.353-0.444-0.707-0.884-1.06-1.323c-0.335-0.492-0.603-1.027-0.797-1.591c-0.254-0.501-0.431-1.037-0.526-1.59
		c-0.104-0.582-0.163-1.171-0.177-1.763c0.012-1.154,0.251-2.295,0.703-3.358c0.811-2.213,2.554-3.956,4.767-4.767
		c1.611-0.702,3.401-0.886,5.121-0.526c0.553,0.095,1.09,0.272,1.59,0.526c0.563,0.194,1.098,0.462,1.591,0.797
		c0.44,0.353,0.879,0.707,1.323,1.06c1.611,1.693,2.526,3.93,2.561,6.267c-0.016,0.591-0.075,1.18-0.177,1.763
		c-0.098,0.553-0.277,1.089-0.53,1.59c-0.194,0.563-0.462,1.098-0.797,1.591c-0.349,0.44-0.703,0.879-1.056,1.323
		c-0.419,0.378-0.861,0.731-1.323,1.056c-0.492,0.335-1.027,0.603-1.591,0.797c-0.501,0.253-1.037,0.432-1.59,0.53
		C416.077,220.614,415.488,220.674,414.897,220.69z"/>
	<path style="fill:#F0C419;" d="M388.414,220.69c-2.337-0.035-4.575-0.949-6.268-2.56c-0.353-0.444-0.707-0.884-1.06-1.323
		c-0.335-0.492-0.603-1.027-0.797-1.591c-0.254-0.501-0.431-1.037-0.526-1.59c-0.104-0.582-0.162-1.172-0.176-1.763
		c0.012-1.154,0.251-2.295,0.703-3.358c0.449-1.069,1.077-2.053,1.857-2.91c2.135-2.045,5.126-2.933,8.03-2.383
		c0.553,0.095,1.09,0.272,1.59,0.526c0.563,0.194,1.098,0.462,1.591,0.797c0.44,0.353,0.879,0.707,1.323,1.06
		c0.778,0.858,1.405,1.842,1.854,2.909c0.495,1.048,0.738,2.199,0.707,3.358c-0.016,0.591-0.075,1.18-0.177,1.763
		c-0.098,0.553-0.277,1.089-0.53,1.59c-0.194,0.563-0.462,1.098-0.797,1.591c-0.349,0.44-0.703,0.879-1.056,1.323
		c-0.419,0.378-0.861,0.731-1.323,1.056c-0.492,0.335-1.027,0.603-1.591,0.797c-0.501,0.253-1.037,0.432-1.59,0.53
		C389.594,220.61,389.005,220.669,388.414,220.69z"/>
	<path style="fill:#E64C3C;" d="M361.931,220.69c-1.159,0.031-2.309-0.212-3.358-0.707c-1.068-0.449-2.051-1.076-2.909-1.854
		c-0.353-0.444-0.707-0.884-1.06-1.323c-0.335-0.492-0.603-1.027-0.797-1.591c-0.254-0.501-0.431-1.037-0.526-1.59
		c-0.104-0.582-0.163-1.171-0.177-1.763c0.033-2.337,0.947-4.576,2.56-6.268c0.857-0.78,1.841-1.409,2.909-1.858
		c2.132-0.97,4.579-0.97,6.711,0c2.215,0.807,3.96,2.552,4.767,4.767c0.453,1.062,0.694,2.203,0.708,3.358
		c-0.016,0.591-0.075,1.18-0.177,1.763c-0.098,0.553-0.277,1.089-0.53,1.59c-0.194,0.563-0.462,1.098-0.797,1.591
		c-0.349,0.44-0.703,0.879-1.056,1.323c-0.86,0.778-1.845,1.405-2.914,1.854C364.238,220.478,363.089,220.72,361.931,220.69z"/>
	<path style="fill:#ECF0F1;" d="M450.207,256v53.672c-13.862-6.298-28.913-9.549-44.138-9.534
		c-24.076-0.066-47.445,8.129-66.207,23.217c-7.54,6.039-14.222,13.078-19.862,20.921H88.276
		c-12.554-0.004-23.386-8.809-25.953-21.098c-0.355-1.773-0.533-3.577-0.53-5.385l0-61.793h35.31v26.483
		c0.015,4.869,3.958,8.813,8.828,8.828h17.655c4.869-0.015,8.813-3.958,8.828-8.828V256h35.31v26.483
		c0.015,4.869,3.958,8.813,8.828,8.828h17.655c4.869-0.015,8.813-3.958,8.828-8.828V256H450.207z"/>
	<path style="fill:#4482C3;" d="M406.069,406.069l-43.873,96.486c-4.873-2.222-9.566-4.819-14.036-7.768
		c-28.459-18.566-46.284-49.657-47.927-83.597c-1.643-33.94,13.096-66.607,39.629-87.835L406.069,406.069z"/>
	<path style="fill:#F0C419;" d="M512,406.069H406.069V300.137c35.814-0.119,69.235,17.971,88.717,48.023
		C506.055,365.368,512.039,385.499,512,406.069z"/>
	<path style="fill:#E64C3C;" d="M406.069,300.137v105.932l-66.207-82.715C358.624,308.266,381.993,300.071,406.069,300.137z"/>
	<path style="fill:#46B29D;" d="M512,406.069c-0.041,36.01-18.352,69.539-48.626,89.038c-30.274,19.499-68.375,22.303-101.178,7.447
		l43.873-96.486H512z"/>
</g>
<g>
</g>
<g>
</g>
<g>
</g>
<g>
</g>
<g>
</g>
<g>
</g>
<g>
</g>
<g>
</g>
<g>
</g>
<g>
</g>
<g>
</g>
<g>
</g>
<g>
</g>
<g>
</g>
<g>
</g>
</svg>
