<?xml version="1.0" encoding="iso-8859-1"?>
<!-- Generator: Adobe Illustrator 19.0.0, SVG Export Plug-In . SVG Version: 6.00 Build 0)  -->
<svg xmlns="http://www.w3.org/2000/svg" xmlns:xlink="http://www.w3.org/1999/xlink" version="1.1" id="Capa_1" x="0px" y="0px" viewBox="0 0 512.022 512.022" style="enable-background:new 0 0 512.022 512.022;" xml:space="preserve" width="512px" height="512px">
<g>
	<g>
		<g>
			<path d="M512.01,256c-0.16-141.318-114.681-255.84-256-256c-141.385,0-256,114.615-256,256s114.615,256,256,256     c30.14,0.06,60.046-5.292,88.294-15.803c3.253,1.951,6.605,3.733,10.041,5.339c0.25,0.205,0.513,0.395,0.786,0.568     c0.233,0.106,0.48,0.073,0.717,0.157c44.138,19.868,96.066,8.76,128.215-27.425c32.149-36.185,37.065-89.059,12.139-130.552     C506.681,316.031,512.034,286.134,512.01,256z M354.654,482.543c-29.297-16.67-47.406-47.769-47.444-81.476     c0.003-25.513,10.429-49.917,28.861-67.558l55.068,68.799L354.654,482.543z M76.811,247.467v-51.2     c0.009-9.422,7.645-17.057,17.067-17.067h324.267c9.422,0.009,17.057,7.645,17.067,17.067v51.2H76.811z M196.277,264.533V281.6     h-17.067v-17.067H196.277z M128.011,264.533V281.6h-17.067v-17.067H128.011z M93.877,264.533V281.6     c0.009,9.422,7.645,17.057,17.067,17.067h17.067c9.422-0.009,17.057-7.645,17.067-17.067v-17.067h17.067V281.6     c0.009,9.422,7.645,17.057,17.067,17.067h17.067c9.422-0.009,17.057-7.645,17.067-17.067v-17.067h221.867v31.028     c-35.197-11.474-73.803-4.514-102.778,18.528c-0.221,0.146-0.479,0.188-0.689,0.356c-0.151,0.121-0.216,0.298-0.357,0.427     c-6.511,5.297-12.405,11.311-17.569,17.927H93.877c-8.071-0.003-15.041-5.648-16.721-13.542c-0.233-1.16-0.349-2.341-0.346-3.525     l0-51.2H93.877z M392.544,307.632v69.118l-43.177-53.944C362.275,314.239,377.114,309.024,392.544,307.632z M401.077,494.933     c-10.522-0.021-20.965-1.823-30.887-5.329l36.382-80.005h87.939C490.057,457.895,449.577,494.865,401.077,494.933z      M409.611,392.533v-84.901c45.049,4.171,80.73,39.852,84.901,84.901H409.611z M483.911,327.532     c-8.957-10.108-19.675-18.504-31.634-24.779V196.267c-0.022-18.842-15.291-34.112-34.133-34.133H93.877     c-18.842,0.021-34.112,15.291-34.133,34.133v119.467c-0.004,2.326,0.226,4.646,0.688,6.925     c3.322,15.831,17.27,27.178,33.446,27.208h208.886c-23.628,45.06-13.382,100.433,24.804,134.056     c-23.143,7.332-47.28,11.047-71.557,11.011c-104.72,0.412-197.387-67.721-228.221-167.8     C20.691,304.089,17.081,280.113,17.077,256c0-131.959,106.974-238.933,238.933-238.933S494.944,124.041,494.944,256     C494.957,280.269,491.235,304.395,483.911,327.532z" fill="#FFDA44"/>
			<path d="M414.39,206.25c-0.476-0.324-0.993-0.583-1.538-0.771c-0.484-0.246-1.002-0.417-1.537-0.508     c-1.663-0.348-3.393-0.171-4.95,0.508c-2.139,0.784-3.824,2.469-4.608,4.608c-0.437,1.027-0.668,2.13-0.68,3.246     c0.013,0.572,0.071,1.141,0.171,1.704c0.091,0.535,0.263,1.053,0.508,1.537c0.188,0.544,0.447,1.062,0.771,1.538     c0.341,0.425,0.683,0.85,1.025,1.279c0.83,0.752,1.781,1.358,2.813,1.792c1.014,0.479,2.125,0.713,3.246,0.683     c0.571-0.016,1.141-0.073,1.704-0.171c0.535-0.095,1.053-0.268,1.537-0.512c0.544-0.188,1.062-0.447,1.538-0.771     c0.447-0.314,0.874-0.655,1.279-1.021c0.341-0.429,0.683-0.854,1.021-1.279c0.324-0.476,0.583-0.993,0.771-1.538     c0.245-0.485,0.418-1.003,0.513-1.537c0.098-0.563,0.155-1.133,0.171-1.705c-0.033-2.259-0.917-4.422-2.475-6.059     C415.24,206.933,414.815,206.592,414.39,206.25z" fill="#FFDA44"/>
			<path d="M390.069,207.275c-0.429-0.341-0.854-0.683-1.279-1.025c-0.476-0.324-0.993-0.583-1.538-0.771     c-0.484-0.246-1.002-0.417-1.537-0.508c-2.808-0.531-5.699,0.327-7.763,2.304c-0.754,0.828-1.362,1.78-1.796,2.813     c-0.437,1.027-0.668,2.13-0.68,3.246c0.014,0.572,0.071,1.141,0.171,1.704c0.091,0.535,0.263,1.053,0.508,1.537     c0.187,0.544,0.447,1.062,0.771,1.538c0.341,0.425,0.683,0.85,1.025,1.279c1.636,1.558,3.8,2.441,6.058,2.475     c0.571-0.02,1.141-0.077,1.704-0.171c0.535-0.095,1.053-0.268,1.537-0.512c0.544-0.188,1.062-0.447,1.538-0.771     c0.447-0.314,0.874-0.655,1.279-1.021c0.341-0.429,0.683-0.854,1.021-1.279c0.324-0.476,0.583-0.993,0.771-1.538     c0.245-0.485,0.418-1.003,0.513-1.537c0.098-0.563,0.155-1.133,0.17-1.705c0.03-1.121-0.204-2.232-0.683-3.246     C391.426,209.056,390.821,208.104,390.069,207.275z" fill="#FFDA44"/>
			<path d="M364.469,207.275c-0.83-0.754-1.782-1.362-2.817-1.796c-2.061-0.938-4.427-0.938-6.487,0     c-1.033,0.434-1.985,1.041-2.813,1.796c-1.559,1.635-2.443,3.799-2.475,6.059c0.013,0.572,0.071,1.141,0.171,1.704     c0.091,0.535,0.263,1.053,0.508,1.537c0.187,0.544,0.447,1.062,0.771,1.538c0.341,0.425,0.683,0.85,1.025,1.279     c0.83,0.752,1.781,1.358,2.813,1.792c2.066,0.911,4.421,0.911,6.487,0c1.033-0.434,1.986-1.04,2.817-1.792     c0.341-0.429,0.683-0.854,1.021-1.279c0.324-0.476,0.583-0.993,0.771-1.538c0.245-0.485,0.418-1.003,0.513-1.537     c0.098-0.563,0.155-1.133,0.171-1.704c-0.013-1.116-0.245-2.219-0.683-3.246C365.827,209.056,365.221,208.104,364.469,207.275z" fill="#FFDA44"/>
		</g>
	</g>
</g>
<g>
</g>
<g>
</g>
<g>
</g>
<g>
</g>
<g>
</g>
<g>
</g>
<g>
</g>
<g>
</g>
<g>
</g>
<g>
</g>
<g>
</g>
<g>
</g>
<g>
</g>
<g>
</g>
<g>
</g>
</svg>
