<?xml version="1.0" encoding="iso-8859-1"?>
<!-- Generator: Adobe Illustrator 19.0.0, SVG Export Plug-In . SVG Version: 6.00 Build 0)  -->
<svg version="1.1" id="Capa_1" xmlns="http://www.w3.org/2000/svg" xmlns:xlink="http://www.w3.org/1999/xlink" x="0px" y="0px"
	 viewBox="0 0 512.022 512.022" style="enable-background:new 0 0 512.022 512.022;" xml:space="preserve">
<g>
	<g transform="translate(1 1)">
		<path style="fill:#A4C2F7;" d="M502.477,255c0.011,65.636-26.058,128.586-72.469,174.997
			c-46.411,46.411-109.362,72.48-174.997,72.469c-4.267,0-8.533-0.085-12.715-0.341h-0.171C110.639,495.274,7.542,386.664,7.542,255
			S110.639,14.726,242.125,7.875h0.171c4.181-0.256,8.448-0.341,12.715-0.341c65.636-0.011,128.586,26.058,174.997,72.469
			C476.419,126.414,502.488,189.364,502.477,255z"/>
		<path style="fill:#E3E7F2;" d="M476.877,255c0.003,131.665-103.095,240.275-234.581,247.125h-0.171
			C110.639,495.274,7.542,386.664,7.542,255S110.639,14.726,242.125,7.875h0.171C373.782,14.725,476.879,123.336,476.877,255z"/>
		<g>
			<path style="fill:#A4C2F7;" d="M203.811,255v25.6c-0.014,4.707-3.826,8.519-8.533,8.533h-17.067
				c-4.707-0.014-8.519-3.826-8.533-8.533V255H203.811z"/>
			<path style="fill:#A4C2F7;" d="M442.744,195.267V255H67.277l0-59.733c-0.009-6.792,2.685-13.309,7.488-18.112
				c4.803-4.803,11.32-7.497,18.112-7.488h324.267c6.792-0.009,13.309,2.685,18.112,7.488
				C440.059,181.958,442.753,188.474,442.744,195.267z"/>
		</g>
		<path style="fill:#E3E7F2;" d="M417.144,195.267V255H67.277v-59.733c-0.232-6.558,2.151-12.94,6.625-17.741
			c4.474-4.801,10.672-7.628,17.23-7.859h302.158c6.558,0.231,12.756,3.058,17.23,7.859
			C414.993,182.327,417.376,188.708,417.144,195.267z"/>
		<g>
			<path style="fill:#A4C2F7;" d="M135.544,255v25.6c-0.014,4.707-3.826,8.519-8.533,8.533h-17.067
				c-4.707-0.014-8.519-3.826-8.533-8.533V255H135.544z"/>
			<path style="fill:#A4C2F7;" d="M442.744,255v51.883c-8.147-3.723-16.757-6.335-25.6-7.765V255H442.744z"/>
		</g>
		
			<linearGradient id="SVGID_1_" gradientUnits="userSpaceOnUse" x1="-49.6497" y1="651.19" x2="-49.0866" y2="648.8815" gradientTransform="matrix(349.8667 0 0 -85.3333 17507.9297 55753.3359)">
			<stop  offset="0" style="stop-color:#D4E1F4"/>
			<stop  offset="0.1717" style="stop-color:#D4E1F4"/>
			<stop  offset="0.2" style="stop-color:#D4E1F4"/>
			<stop  offset="0.2001" style="stop-color:#DAE4F4"/>
			<stop  offset="0.2007" style="stop-color:#EBEBF4"/>
			<stop  offset="0.2014" style="stop-color:#F6F1F4"/>
			<stop  offset="0.2023" style="stop-color:#FDF4F4"/>
			<stop  offset="0.205" style="stop-color:#FFF5F4"/>
			<stop  offset="0.2522" style="stop-color:#FFF5F4"/>
			<stop  offset="0.26" style="stop-color:#FFF5F4"/>
			<stop  offset="0.26" style="stop-color:#D4E1F4"/>
			<stop  offset="0.3974" style="stop-color:#D4E1F4"/>
			<stop  offset="0.42" style="stop-color:#D4E1F4"/>
			<stop  offset="0.4201" style="stop-color:#DAE4F4"/>
			<stop  offset="0.4207" style="stop-color:#EBEBF4"/>
			<stop  offset="0.4214" style="stop-color:#F6F1F4"/>
			<stop  offset="0.4223" style="stop-color:#FDF4F4"/>
			<stop  offset="0.425" style="stop-color:#FFF5F4"/>
			<stop  offset="0.4894" style="stop-color:#FFF5F4"/>
			<stop  offset="0.5" style="stop-color:#FFF5F4"/>
			<stop  offset="0.5" style="stop-color:#F9F2F4"/>
			<stop  offset="0.5001" style="stop-color:#E8EBF4"/>
			<stop  offset="0.5003" style="stop-color:#DDE5F4"/>
			<stop  offset="0.5005" style="stop-color:#D6E2F4"/>
			<stop  offset="0.501" style="stop-color:#D4E1F4"/>
			<stop  offset="0.7062" style="stop-color:#D4E1F4"/>
			<stop  offset="0.74" style="stop-color:#D4E1F4"/>
			<stop  offset="0.741" style="stop-color:#FFF5F4"/>
			<stop  offset="0.8346" style="stop-color:#FFF5F4"/>
			<stop  offset="0.85" style="stop-color:#FFF5F4"/>
			<stop  offset="0.851" style="stop-color:#D4E1F4"/>
		</linearGradient>
		<path style="fill:url(#SVGID_1_);" d="M417.144,255v44.117c-5.638-0.959-11.347-1.445-17.067-1.451
			c-4.307-0.004-8.61,0.252-12.885,0.768c-28.236,3.607-53.703,18.783-70.315,41.899h-224c-12.136-0.004-22.606-8.516-25.088-20.395
			c-0.343-1.714-0.515-3.458-0.512-5.205l0-59.733h34.133v25.6c-0.01,3.038,1.621,5.845,4.267,7.339
			c1.287,0.78,2.762,1.193,4.267,1.195h17.067c4.707-0.014,8.519-3.826,8.533-8.533V255h34.133v25.6
			c-0.01,3.038,1.621,5.845,4.267,7.339c1.287,0.78,2.762,1.193,4.267,1.195h17.067c4.707-0.014,8.519-3.826,8.533-8.533V255
			H417.144z"/>
		<g>
			<path style="fill:#E3E7F2;" d="M400.077,400.067l-42.411,93.269c-4.711-2.148-9.247-4.658-13.568-7.509
				c-27.51-17.947-44.741-48.002-46.329-80.81c-1.588-32.808,12.659-64.387,38.308-84.907L400.077,400.067z"/>
			<path style="fill:#E3E7F2;" d="M502.478,400.067h-102.4V297.666c34.621-0.115,66.927,17.372,85.76,46.422
				C496.73,360.723,502.515,380.183,502.478,400.067z"/>
			<path style="fill:#E3E7F2;" d="M400.077,297.666v102.401l-64-79.958C354.214,305.524,376.804,297.602,400.077,297.666z"/>
			<path style="fill:#E3E7F2;" d="M502.477,400.067c-0.04,34.81-17.74,67.221-47.006,86.071s-66.096,21.56-97.805,7.199
				l42.411-93.269H502.477z"/>
		</g>
		<g>
			<path style="fill:#A4C2F7;" d="M502.477,400.067c0.008,27.16-10.779,53.211-29.984,72.416
				c-19.205,19.205-45.256,29.991-72.416,29.984c-4.281,0.019-8.559-0.266-12.8-0.853c51.204-6.405,89.62-49.944,89.6-101.547
				H502.477z"/>
			<path style="fill:#A4C2F7;" d="M502.478,400.067h-25.6c0.037-19.884-5.747-39.344-16.64-55.979
				c-10.583-16.205-25.518-29.1-43.093-37.206c-5.489-2.523-11.203-4.523-17.067-5.973v-3.243
				c34.621-0.115,66.927,17.372,85.76,46.422C496.73,360.723,502.515,380.183,502.478,400.067z"/>
		</g>
		<path style="fill:#FFFFFF;" d="M267.725,502.125c-4.181,0.256-8.448,0.341-12.715,0.341c-4.267,0-8.533-0.085-12.715-0.341h-0.171
			C110.639,495.274,7.542,386.664,7.542,255S110.639,14.726,242.125,7.875h0.171c4.181-0.256,8.448-0.341,12.715-0.341
			c4.267,0,8.448,0.085,12.629,0.341C136.173,14.772,33.12,123.393,33.142,255.041C33.165,386.688,136.256,495.273,267.725,502.125z
			"/>
	</g>
	<g>
		<path style="fill:#FFFFFF;" d="M0.011,256c0.128-38.401,8.844-76.287,25.509-110.883c5.17-10.797,11.048-21.24,17.595-31.263
			c3.394-4.921,7.106-9.627,10.652-14.446c3.495-4.859,7.337-9.459,11.496-13.762c15.857-17.975,34.253-33.539,54.607-46.198
			c20.241-12.849,42.226-22.718,65.279-29.303C208.22,3.658,232.046,0.247,256.011,0v17.067
			c-22.368,0.247-44.607,3.434-66.144,9.481c-21.509,6.141-42.02,15.35-60.902,27.343C109.958,65.7,92.784,80.231,77.989,97.019
			c-3.895,4.007-7.483,8.301-10.734,12.846c-3.302,4.503-6.781,8.887-9.954,13.477c-6.102,9.357-11.582,19.106-16.405,29.182
			C25.342,184.809,17.204,220.164,17.077,256H0.011z"/>
		<g>
			<path style="fill:#428DFF;" d="M11.67,194.313c0.378,0.435,0.815,0.816,1.297,1.131c0.408,0.357,0.868,0.649,1.365,0.866
				c0.523,0.229,1.062,0.42,1.613,0.573c2.198,0.5,4.504,0.182,6.485-0.894c0.938-0.569,1.759-1.313,2.417-2.192
				c2.004-2.706,2.208-6.344,0.518-9.256c-0.552-0.951-1.267-1.798-2.113-2.502c-0.838-0.722-1.809-1.274-2.859-1.623
				c-2.19-0.669-4.553-0.474-6.604,0.545c-1.942,1.214-3.348,3.123-3.932,5.338c-0.557,2.255-0.26,4.636,0.834,6.685L11.67,194.313z
				"/>
			<path style="fill:#428DFF;" d="M256.011,0c-23.964,0.247-47.791,3.658-70.861,10.145c-23.053,6.585-45.038,16.454-65.279,29.303
				c-20.354,12.659-38.75,28.223-54.607,46.198c-4.16,4.304-8.002,8.903-11.496,13.762c-3.546,4.818-7.258,9.524-10.652,14.446
				c-6.546,10.022-12.424,20.466-17.595,31.262l-3.827,7.957c-0.976,2.096-1.039,4.503-0.174,6.648s2.58,3.834,4.737,4.667
				c4.282,1.624,9.093-0.31,11.06-4.445l3.579-7.42c4.823-10.076,10.304-19.824,16.406-29.181c3.172-4.591,6.652-8.974,9.954-13.477
				c3.251-4.545,6.839-8.84,10.734-12.847C92.784,80.23,109.958,65.7,128.965,53.89c18.881-11.993,39.393-21.202,60.902-27.343
				c21.537-6.046,43.776-9.234,66.144-9.481C387.908,17.215,494.796,124.102,494.944,256c0.013,24.269-3.709,48.395-11.033,71.532
				c-8.957-10.108-19.675-18.504-31.634-24.779V196.267c-0.022-18.842-15.291-34.112-34.133-34.133H93.877
				c-18.842,0.022-34.112,15.291-34.133,34.133v119.467c-0.004,2.326,0.226,4.646,0.688,6.925
				c3.322,15.831,17.27,27.178,33.446,27.208h208.886c-23.628,45.06-13.382,100.433,24.804,134.056
				c-60.544,19.046-126.178,13.219-182.42-16.196s-98.467-80-117.358-140.593C20.691,304.089,17.081,280.113,17.077,256
				l0.841-16.464l0.431-8.23l1.252-8.143c0.566-4.602-2.593-8.834-7.167-9.599c-2.262-0.364-4.574,0.205-6.409,1.575
				s-3.037,3.426-3.331,5.697l-1.323,8.729l-0.48,8.809L0.011,256c0.004,25.822,3.872,51.498,11.475,76.175
				C44.512,439.416,143.8,512.433,256.011,512c30.14,0.06,60.046-5.292,88.294-15.803c3.253,1.951,6.605,3.733,10.041,5.339
				c0.25,0.205,0.513,0.395,0.786,0.568c0.233,0.106,0.48,0.074,0.717,0.157c44.138,19.868,96.066,8.76,128.215-27.425
				c32.149-36.185,37.065-89.059,12.139-130.552c10.479-28.253,15.833-58.15,15.809-88.284C511.85,114.682,397.329,0.16,256.011,0z
				 M494.512,392.533h-84.901v-84.901C454.66,311.803,490.341,347.484,494.512,392.533z M392.544,376.75l-43.177-53.944
				c12.908-8.567,27.747-13.782,43.177-15.173V376.75z M93.877,179.2h324.267c9.422,0.009,17.057,7.645,17.067,17.067v51.2h-358.4
				v-51.2C76.82,186.845,84.455,179.209,93.877,179.2z M179.211,264.533h17.067V281.6h-17.067V264.533z M110.944,264.533h17.067
				V281.6h-17.067V264.533z M93.877,332.8c-8.071-0.003-15.041-5.648-16.721-13.542c-0.233-1.16-0.349-2.341-0.346-3.525l0-51.2
				h17.067V281.6c0.009,9.422,7.645,17.057,17.067,17.067h17.067c9.422-0.009,17.057-7.645,17.067-17.067v-17.067h17.067V281.6
				c0.009,9.422,7.645,17.057,17.067,17.067h17.067c9.422-0.009,17.057-7.645,17.067-17.067v-17.067h221.867v31.028
				c-35.197-11.474-73.803-4.514-102.778,18.528c-0.221,0.146-0.479,0.188-0.689,0.356c-0.151,0.121-0.216,0.298-0.357,0.427
				c-6.511,5.297-12.405,11.311-17.569,17.928H93.877z M307.211,401.067c0.003-25.513,10.429-49.917,28.861-67.558l55.068,68.799
				l-36.485,80.235C325.357,465.873,307.249,434.774,307.211,401.067z M401.077,494.933c-10.522-0.021-20.965-1.823-30.887-5.329
				l36.382-80.005h87.939C490.057,457.895,449.577,494.865,401.077,494.933z"/>
			<path style="fill:#428DFF;" d="M401.756,216.575c0.187,0.544,0.447,1.062,0.771,1.538c0.341,0.425,0.683,0.85,1.025,1.279
				c0.83,0.752,1.781,1.358,2.813,1.792c1.014,0.479,2.125,0.713,3.246,0.683c0.571-0.016,1.141-0.073,1.704-0.171
				c0.535-0.095,1.053-0.268,1.537-0.513c0.544-0.187,1.062-0.447,1.538-0.771c0.447-0.314,0.874-0.655,1.279-1.021
				c0.341-0.429,0.683-0.854,1.021-1.279c0.324-0.476,0.583-0.993,0.771-1.538c0.245-0.485,0.418-1.003,0.512-1.537
				c0.098-0.563,0.155-1.133,0.171-1.705c-0.033-2.259-0.917-4.422-2.475-6.059c-0.429-0.341-0.854-0.683-1.279-1.025
				c-0.476-0.324-0.993-0.583-1.538-0.771c-0.484-0.246-1.002-0.417-1.537-0.508c-1.663-0.348-3.393-0.171-4.95,0.508
				c-2.139,0.784-3.824,2.469-4.608,4.608c-0.437,1.027-0.668,2.13-0.68,3.247c0.014,0.572,0.071,1.141,0.171,1.704
				C401.339,215.573,401.511,216.091,401.756,216.575z"/>
			<path style="fill:#428DFF;" d="M376.156,216.575c0.187,0.544,0.447,1.062,0.771,1.538c0.341,0.425,0.683,0.85,1.025,1.279
				c1.636,1.558,3.799,2.441,6.058,2.475c0.571-0.02,1.14-0.077,1.704-0.171c0.535-0.095,1.053-0.268,1.537-0.513
				c0.544-0.187,1.062-0.447,1.538-0.771c0.447-0.314,0.874-0.655,1.28-1.021c0.341-0.429,0.683-0.854,1.021-1.279
				c0.324-0.476,0.583-0.993,0.771-1.538c0.245-0.485,0.418-1.003,0.513-1.537c0.098-0.563,0.155-1.133,0.171-1.705
				c0.03-1.121-0.204-2.232-0.683-3.246c-0.434-1.032-1.04-1.983-1.792-2.813c-0.429-0.341-0.854-0.683-1.279-1.025
				c-0.476-0.324-0.993-0.583-1.538-0.771c-0.484-0.246-1.002-0.417-1.537-0.508c-2.808-0.531-5.699,0.327-7.763,2.304
				c-0.754,0.828-1.362,1.78-1.796,2.813c-0.436,1.027-0.667,2.13-0.679,3.246c0.014,0.572,0.071,1.141,0.171,1.704
				C375.739,215.573,375.911,216.091,376.156,216.575z"/>
			<path style="fill:#428DFF;" d="M350.556,216.575c0.187,0.544,0.447,1.062,0.771,1.538c0.341,0.425,0.683,0.85,1.025,1.279
				c0.83,0.752,1.781,1.358,2.813,1.792c2.067,0.911,4.421,0.911,6.487,0c1.033-0.434,1.986-1.04,2.817-1.792
				c0.341-0.429,0.683-0.854,1.021-1.279c0.324-0.476,0.583-0.993,0.771-1.538c0.245-0.485,0.418-1.003,0.513-1.537
				c0.098-0.563,0.155-1.133,0.171-1.704c-0.013-1.116-0.245-2.219-0.683-3.246c-0.78-2.141-2.467-3.828-4.608-4.608
				c-2.061-0.938-4.427-0.938-6.487,0c-1.033,0.434-1.984,1.041-2.813,1.795c-1.559,1.635-2.443,3.799-2.475,6.059
				c0.014,0.572,0.071,1.141,0.171,1.704C350.139,215.573,350.311,216.091,350.556,216.575z"/>
		</g>
	</g>
</g>
<g>
</g>
<g>
</g>
<g>
</g>
<g>
</g>
<g>
</g>
<g>
</g>
<g>
</g>
<g>
</g>
<g>
</g>
<g>
</g>
<g>
</g>
<g>
</g>
<g>
</g>
<g>
</g>
<g>
</g>
</svg>
